<svg width="24" height="24" viewBox="0 0 24 24" fill="none" xmlns="http://www.w3.org/2000/svg">
<path d="M12.0245 0C5.36064 0 0 5.50035 0 12.3008C0 17.7511 3.44261 22.3514 8.21309 23.9765C8.80325 24.1016 9.02456 23.7015 9.02456 23.3765C9.02456 23.1015 8.99997 22.1014 8.99997 21.1014C5.65572 21.8264 4.9672 19.6263 4.9672 19.6263C4.42621 18.2012 3.63933 17.8261 3.63933 17.8261C2.55737 17.0761 3.7131 17.0761 3.7131 17.0761C4.91802 17.1511 5.55736 18.3512 5.55736 18.3512C6.63932 20.2263 8.36063 19.7013 9.04915 19.3762C9.14751 18.5762 9.46718 18.0262 9.81144 17.7261C7.15571 17.4511 4.35244 16.3761 4.35244 11.6507C4.35244 10.3007 4.81966 9.20059 5.58195 8.35054C5.459 8.05052 5.04097 6.77544 5.7049 5.10033C5.7049 5.10033 6.71309 4.77531 8.99997 6.37541C9.95898 6.10039 10.9918 5.97538 12 5.97538C13.0082 5.97538 14.0409 6.12539 14.9999 6.37541C17.2868 4.77531 18.295 5.10033 18.295 5.10033C18.959 6.80044 18.5409 8.05052 18.418 8.35054C19.2049 9.20059 19.6475 10.3007 19.6475 11.6507C19.6475 16.3761 16.8442 17.4261 14.1639 17.7261C14.6065 18.1012 14.9754 18.8512 14.9754 20.0013C14.9754 21.6514 14.9508 22.9765 14.9508 23.3765C14.9508 23.7015 15.1721 24.1016 15.7622 23.9765C20.5573 22.3514 23.9999 17.7511 23.9999 12.3008C24.0245 5.50035 18.6393 0 12.0245 0Z" fill="white"/>
</svg>
