<svg width="153" height="86" viewBox="0 0 153 86" fill="none" xmlns="http://www.w3.org/2000/svg">
<path d="M72.9917 45.3029C71.5826 45.3504 70.1757 45.5048 68.7731 45.7661C68.148 45.8552 67.5143 45.9442 66.8742 46.0393C61.0145 46.8172 55.1676 47.8387 49.3379 49.1036C49.0393 49.16 48.7987 49.2045 48.6162 49.2342C48.2897 49.2669 48.0534 49.3144 47.9116 49.3768C47.7741 49.4421 47.671 49.5757 47.6023 49.7806C47.5336 49.9795 47.4584 50.3002 47.3789 50.7426C47.3209 51.0039 47.2586 51.3246 47.1899 51.7047C46.5025 54.8254 45.9032 57.9818 45.3942 61.1709C45.0548 63.2316 44.8443 65.316 44.7583 67.4302C44.7111 68.0894 44.7347 68.7218 44.8271 69.3305C44.9173 69.9333 45.1665 70.4381 45.5746 70.8508C45.6304 70.8894 45.6562 70.9488 45.6519 71.029C45.6455 71.1062 45.6197 71.1834 45.5746 71.2546C45.5273 71.3319 45.4801 71.3883 45.4285 71.4209C44.5801 71.7683 44.0194 71.4387 43.7445 70.4351C43.5834 69.865 43.5039 69.2682 43.5039 68.6417C43.4975 68.5941 43.4953 68.5585 43.4953 68.5348C43.4609 67.4658 43.4953 66.3939 43.5984 65.316C43.7015 64.2411 43.8304 63.1514 43.9851 62.0498C44.4877 58.7717 45.087 55.5054 45.7808 52.2511C45.8195 52.1174 45.8452 51.9838 45.8581 51.8472C45.8968 51.6899 45.9376 51.5236 45.9784 51.3484C46.03 51.1108 46.0772 50.8792 46.1245 50.6476C46.1696 50.419 46.1717 50.1814 46.1331 49.935C46.0407 49.8578 45.9548 49.8162 45.8753 49.8162C45.7937 49.8103 45.7164 49.8251 45.6433 49.8637C45.6304 49.8637 45.6132 49.8637 45.5918 49.8637C44.9044 50.0003 44.217 50.1369 43.5297 50.2794C43.3342 50.321 43.1344 50.3596 42.9282 50.3982C42.6705 50.4695 42.4643 50.6239 42.3096 50.8614C42.1593 51.093 42.0196 51.3662 41.8886 51.6809C41.7103 52.1026 41.5363 52.5183 41.3645 52.9281C40.6256 54.671 39.8802 56.4022 39.1306 58.1184C38.0072 60.6215 36.8129 63.0593 35.5477 65.4348C34.2868 67.8043 32.9293 70.055 31.4751 72.193C29.6364 74.9396 27.6452 77.4249 25.5036 79.6519C22.215 82.9537 18.6171 84.8957 14.712 85.4836C11.0411 86.0685 7.60427 85.3322 4.40159 83.2744C3.49728 82.6865 2.67244 81.9382 1.92708 81.0296C1.42875 80.3793 1.01418 79.6519 0.681241 78.8442C0.344004 78.0425 0.127055 77.1458 0.0282466 76.1481C-0.0512296 74.9425 0.0368386 73.7964 0.294599 72.7037C0.55236 71.6169 0.96263 70.5955 1.52326 69.6393C2.2858 68.3091 3.15574 67.1392 4.13524 66.1237C5.06962 65.1022 6.04911 64.1817 7.07371 63.3563C8.10046 62.5338 9.14439 61.7766 10.2098 61.0877C11.9175 59.9564 13.6552 58.9469 15.4252 58.059C17.1994 57.1653 18.9909 56.3487 20.7952 55.6123C25.0676 53.9584 29.3872 52.5836 33.752 51.4909C35.9687 50.8733 38.1876 50.3566 40.4108 49.935C41.023 49.8489 41.4612 49.4065 41.7254 48.6047C42.2001 47.3458 42.6791 46.0838 43.1602 44.8159C43.9099 42.868 44.6402 40.8964 45.3512 38.901C48.6613 29.5358 51.7866 20.0578 54.7251 10.4669C54.9657 9.65331 55.202 8.82784 55.4382 7.99644C55.5456 7.57776 55.6573 7.15315 55.7733 6.72557C55.9108 6.17328 56.1814 5.82884 56.5896 5.69225C56.8173 5.65365 56.9934 5.71304 57.1137 5.87041C57.2383 6.02185 57.2769 6.25048 57.2254 6.55929C57.1674 6.82059 57.0986 7.06704 57.0192 7.29568C56.5488 8.94365 56.1514 10.5946 55.8249 12.2485C55.6981 12.8424 55.5779 13.4214 55.464 13.9826C54.2783 19.3451 53.0862 24.7048 51.8897 30.0644C50.979 34.1976 50.0596 38.3428 49.1317 42.4998C48.8675 43.7291 48.6076 44.9525 48.3498 46.1699C48.2983 46.4164 48.2424 46.6569 48.1866 46.8944C48.1694 46.9597 48.1565 47.0191 48.1522 47.0726C48.1178 47.2478 48.092 47.417 48.0749 47.5833C48.0577 47.7436 48.0792 47.8921 48.1436 48.0346C48.2639 48.1237 48.3971 48.1593 48.5474 48.1415C48.6956 48.1267 48.8331 48.1059 48.9598 48.0821C49.0501 48.0435 49.1403 48.0168 49.2262 47.999C49.8319 47.904 50.4398 47.7911 51.0477 47.6546C51.8725 47.4972 52.706 47.3517 53.548 47.2151C58.0889 46.4728 62.6405 45.7483 67.2007 45.0416C68.7 44.804 70.1907 44.614 71.6686 44.4715C71.806 44.4715 71.9457 44.4566 72.0896 44.4239C72.1691 44.4091 72.2571 44.3943 72.3559 44.3764C72.5385 44.3467 72.7211 44.3349 72.9058 44.3408C73.0884 44.3497 73.2667 44.4002 73.4385 44.4952C73.4772 44.519 73.5073 44.5635 73.5244 44.6259C73.5459 44.6912 73.5524 44.7417 73.5416 44.7803C73.5459 44.8515 73.533 44.9198 73.4987 44.9822C73.4643 45.0475 73.4321 45.095 73.4042 45.1247C73.2774 45.2197 73.14 45.2791 72.9917 45.3029ZM40.4967 51.6097C40.5354 51.4612 40.5311 51.3335 40.4795 51.2296C40.428 51.1287 40.3549 51.0841 40.2647 51.099C40.1144 51.1079 39.9597 51.1405 39.8007 51.194C39.7191 51.2118 39.6396 51.2266 39.5602 51.2415C34.0827 52.3579 28.6418 53.9198 23.2353 55.9211C21.1732 56.6664 19.1283 57.5216 17.1006 58.4866C15.0793 59.4546 13.0924 60.5622 11.1377 61.8122C10.0895 62.4863 9.06491 63.2227 8.06179 64.0214C7.06082 64.8231 6.09422 65.7288 5.16628 66.7413C4.19323 67.7479 3.33188 68.9208 2.58008 70.257C1.71014 71.8871 1.29127 73.5262 1.32564 75.1741C1.36001 76.8191 1.82828 78.3335 2.72614 79.7112C3.39632 80.6436 4.15672 81.4156 5.00303 82.0273C8.11979 84.2751 11.6361 85.056 15.554 84.3671C16.5615 84.183 17.702 83.7851 18.9737 83.1675C20.2217 82.5558 21.416 81.7779 22.5565 80.8277C23.695 79.8835 24.784 78.8205 25.8215 77.6327C28.3819 74.7169 30.6975 71.4477 32.7725 67.8221C34.2095 65.3754 35.5412 62.8307 36.7678 60.1851C37.9921 57.5424 39.1757 54.8611 40.3163 52.1442C40.3786 51.9482 40.4387 51.77 40.4967 51.6097ZM46.8634 47.227C47.5894 43.7113 48.352 40.2016 49.1489 36.6919C49.1832 36.5018 49.2992 35.9525 49.5011 35.0409C49.7073 34.1323 49.9393 33.0693 50.1971 31.8578C50.4549 30.6463 50.689 29.5032 50.9016 28.4253C51.1121 27.3504 51.2582 26.5457 51.3398 26.0142C51.4193 25.4857 51.3763 25.4441 51.211 25.8954C51.1637 25.9994 51.1336 26.0944 51.1164 26.1805C50.979 26.5695 50.8458 26.9525 50.7212 27.3326C49.673 30.4385 48.6162 33.5414 47.5507 36.6444C46.4853 39.7413 45.3705 42.8086 44.2085 45.8492C44.0989 46.1343 43.9851 46.4371 43.8648 46.7519C43.6414 47.322 43.4201 47.901 43.2032 48.486C43.1173 48.7235 43.1022 48.9135 43.1602 49.0561C43.2225 49.1986 43.3428 49.255 43.5211 49.2224C43.8068 49.1689 44.0903 49.1006 44.3717 49.0204C44.8228 48.8868 45.2739 48.7799 45.7206 48.6998C46.0579 48.6522 46.3092 48.5038 46.4767 48.2484C46.6421 47.9871 46.771 47.6486 46.8634 47.227Z" fill="black"/>
<path d="M57.873 54.5453C58.004 54.7205 57.8923 55.1124 57.5379 55.7212C57.1878 56.3239 56.8012 56.8495 56.378 57.3008C55.9527 57.7522 55.4587 58.2154 54.8916 58.6905C54.5178 59.0082 54.1011 59.1715 53.6371 59.1774C53.1775 59.1863 52.9154 58.8538 52.8467 58.1797C52.7822 57.5087 52.8316 56.8109 52.9927 56.0893C53.1517 55.3708 53.1667 55.0145 53.0357 55.0204C52.9025 55.0204 52.6577 55.2342 52.2968 55.6618C51.3517 56.802 50.4925 58.0699 49.7192 59.4625C49.5194 59.9079 49.2337 60.184 48.86 60.2939C48.671 60.3355 48.5163 60.282 48.396 60.1395C48.2757 59.991 48.2456 59.8069 48.3015 59.5931C48.7826 57.8294 49.2702 56.0893 49.7621 54.379C49.8824 54.0168 50.0822 53.7673 50.3636 53.6308C50.4839 53.5773 50.5999 53.607 50.7159 53.7258C50.8361 53.8386 50.9049 53.9811 50.9221 54.1534C50.9221 54.3196 50.892 54.5216 50.8361 54.7591C50.8125 54.9016 50.7889 55.0382 50.7674 55.1629C50.7438 55.2817 50.7416 55.3827 50.7588 55.4599C50.7803 55.54 50.8318 55.5549 50.9135 55.5074C51.0101 55.4064 51.1132 55.3025 51.2228 55.1986C51.4677 54.9224 51.7082 54.6611 51.9445 54.4147C52.155 54.186 52.3763 53.9811 52.6061 53.797C52.8402 53.607 53.0894 53.4615 53.3536 53.3576C53.7875 53.2388 54.1119 53.319 54.3245 53.5951C54.535 53.8742 54.5995 54.3018 54.5135 54.8779C54.4147 55.4094 54.3116 55.9349 54.2042 56.4575C54.0539 56.9504 54.0582 57.3068 54.2128 57.5265C54.3718 57.7492 54.9539 57.3572 55.957 56.3506L56.7045 55.5311C57.4133 54.7086 57.8043 54.379 57.873 54.5453Z" fill="black"/>
<path d="M64.1188 52.9996C64.3078 53.1035 64.3529 53.4331 64.2562 53.9854C64.0887 54.413 63.8997 54.8138 63.6892 55.185C63.4829 55.5591 63.251 55.9065 62.9932 56.2302C62.976 56.2302 62.9674 56.2391 62.9674 56.2539C62.7891 56.4677 62.6023 56.6637 62.4089 56.8359C60.7528 58.0236 59.8163 57.6881 59.5993 55.8263C58.9743 56.8003 58.5533 57.406 58.3363 57.6436C57.8079 58.2226 57.2065 58.5462 56.532 58.6175C56.0337 58.6739 55.6771 58.5314 55.458 58.1899C55.241 57.8514 55.2067 57.3348 55.3549 56.6459C55.5783 55.5769 55.9456 54.5881 56.4547 53.6766C57.0604 52.664 57.7564 51.8089 58.5425 51.1111C58.9592 50.7251 59.4211 50.5172 59.9258 50.4935C60.4242 50.44 60.7614 50.7726 60.9397 51.4912C61.002 51.699 60.9784 51.9009 60.871 52.0969C60.7335 52.3196 60.5531 52.3938 60.3297 52.3226C60.3125 52.3315 60.291 52.3344 60.2695 52.3344C60.2459 52.3285 60.2266 52.3107 60.2094 52.2869C59.9516 51.9306 59.7196 51.8059 59.5134 51.9069C59.3115 52.0108 59.101 52.186 58.8776 52.4295C57.8466 53.5459 57.1377 54.9682 56.7554 56.6934C56.7339 56.7736 56.721 56.8567 56.721 56.9428C56.721 57.023 56.7468 57.0853 56.7983 57.1328C56.9315 57.1744 57.0733 57.1328 57.2279 57.0141C57.3826 56.8953 57.5287 56.7409 57.6661 56.5509C57.8079 56.3549 57.9282 56.1886 58.027 56.052C58.0442 56.0283 58.0528 56.0164 58.0528 56.0164C58.5167 55.2889 58.9743 54.5555 59.4275 53.8191C59.6165 53.439 59.8764 53.2015 60.2094 53.1065C60.6841 53.0203 60.9139 53.2816 60.8967 53.8904C60.8667 54.122 60.8387 54.3476 60.8108 54.5674C60.7185 55.565 60.7679 56.1322 60.9569 56.2658C61.1502 56.3935 61.4209 56.343 61.7645 56.1114C62.1082 55.8739 62.4369 55.4908 62.7526 54.9593C63.0662 54.4219 63.3283 53.9349 63.5345 53.4984C63.7407 53.0649 63.934 52.8986 64.1188 52.9996Z" fill="black"/>
<path d="M69.7201 52.1683C68.631 52.9759 67.8513 53.6173 67.383 54.0924C67.0394 54.4101 66.846 54.6595 66.8074 54.8406C66.7666 55.0158 66.8375 55.3128 67.0222 55.7314C67.0265 55.7552 67.0394 55.7849 67.0565 55.8146C67.2735 56.3134 67.426 56.8479 67.5119 57.418C67.6709 58.5582 67.0394 59.5025 65.6131 60.2448C64.1868 60.9871 63.2052 61.189 62.666 60.8505C62.129 60.518 61.9228 60.0013 62.0474 59.2946C62.1741 58.5909 62.6059 57.8218 63.3448 56.9904C64.0837 56.1531 64.5778 55.5592 64.8226 55.2088C65.0632 54.8525 65.1126 54.4962 64.9687 54.1399C64.9171 54.0152 64.8656 53.8905 64.814 53.7717C64.683 53.4866 64.552 53.1867 64.4188 52.869C64.1675 52.2989 64.0279 51.7229 63.9978 51.1349C63.9634 50.5411 64.0708 50.0244 64.3157 49.579C64.5627 49.1277 64.9859 48.8278 65.5873 48.6764C65.931 48.5992 66.2425 48.6051 66.5238 48.7001C66.8095 48.7951 67.0501 49.0208 67.2456 49.3771C67.4045 49.6236 67.3916 49.8819 67.2026 50.1491C67.0759 50.3332 66.9298 50.3807 66.7644 50.2917C66.6484 50.2531 66.5432 50.1848 66.4465 50.0897C66.4401 50.0601 66.4379 50.0422 66.4379 50.0422C66.3907 50.0125 66.3477 49.9799 66.309 49.9472C66.251 49.8611 66.1931 49.7988 66.1372 49.7572C65.931 49.6147 65.7355 49.5998 65.5529 49.7097C65.3682 49.8136 65.2458 50.0393 65.1835 50.3867C65.1448 50.6658 65.1362 50.939 65.1577 51.2062C65.2093 51.5328 65.2973 51.8446 65.4241 52.1445C65.51 52.3197 65.5873 52.483 65.656 52.6315C65.815 53.0531 65.9439 53.3382 66.0427 53.4866C66.1394 53.6381 66.2425 53.6886 66.352 53.641C66.4594 53.5935 67.4432 52.8928 69.2991 51.5388C69.6986 51.2715 69.8404 51.4794 69.7201 52.1683ZM65.5615 58.8195C66.0534 58.487 66.2253 57.9762 66.0771 57.2874C66.0706 57.2398 66.0556 57.1864 66.0341 57.1211C65.9697 56.7499 65.8837 56.4678 65.7763 56.2778C65.6668 56.0878 65.4713 56.1293 65.1921 56.3966C64.4875 57.1508 63.8582 57.9822 63.3018 58.8908C63.2632 58.971 63.2288 59.0452 63.1987 59.1165C63.1987 59.1165 63.1944 59.1343 63.1815 59.164C63.1429 59.2441 63.145 59.3302 63.1901 59.4253C63.231 59.5203 63.3018 59.5559 63.4049 59.5322C64.1675 59.5559 64.8871 59.3184 65.5615 58.8195Z" fill="black"/>
<path d="M76.1318 51.3389C75.3113 53.1145 74.4735 54.4626 73.6143 55.389C72.7551 56.3154 71.7778 56.7519 70.6845 56.6955C69.5976 56.642 69.0606 55.7394 69.0777 53.9875C69.125 53.1026 69.2217 52.2237 69.3699 51.3507C69.7372 49.3257 70.1109 47.3065 70.4954 45.2933C70.62 44.5807 70.7532 43.8621 70.8907 43.1317C70.9293 42.9595 70.9637 42.7932 70.9938 42.6328C71.0496 42.3656 71.1055 42.0984 71.157 41.8371C71.2301 41.3709 71.0797 41.1601 70.7016 41.2076C70.4954 41.2491 70.2892 41.2848 70.083 41.3145C69.9864 41.3382 69.8811 41.359 69.7651 41.3738C69.662 41.4214 69.5546 41.4659 69.4386 41.5045C69.2496 41.5609 69.0649 41.6084 68.8801 41.647C68.6911 41.6797 68.5107 41.6441 68.3388 41.5401C68.2937 41.5253 68.2572 41.4926 68.2271 41.4451C68.1928 41.3976 68.1734 41.3382 68.167 41.2669C68.1799 41.2283 68.1992 41.1779 68.2271 41.1125C68.2572 41.0502 68.2959 41.0057 68.3474 40.9819C68.4978 40.8572 68.6524 40.7562 68.8114 40.685C69.2711 40.5662 69.72 40.4593 70.1603 40.3643C70.3365 40.3346 70.489 40.3049 70.6157 40.2811C70.9078 40.2277 71.1184 40.1713 71.2515 40.1149C71.389 40.0525 71.4921 39.9248 71.5608 39.7348C71.6339 39.5388 71.7112 39.2359 71.7928 38.8321C71.8379 38.6183 71.8981 38.3808 71.9733 38.1195C72.1387 37.3682 72.3041 36.6081 72.4716 35.839C72.5511 35.4827 72.6348 35.1383 72.7208 34.8057C72.7766 34.4732 72.9012 34.2 73.0902 33.9862C73.2792 33.8377 73.4511 33.8169 73.6057 33.9268C73.6509 33.9595 73.6917 34.0189 73.726 34.105C73.7604 34.194 73.7797 34.2713 73.7862 34.3425C73.8248 34.7404 73.7969 35.1383 73.7003 35.5421C73.6702 35.6312 73.6444 35.7322 73.6229 35.8509C73.5585 36.231 73.494 36.617 73.4253 37.003C73.275 37.7335 73.1461 38.4699 73.0387 39.2122C72.9979 39.3488 73.0043 39.4616 73.0559 39.5566C73.1117 39.6516 73.1869 39.6932 73.2792 39.6754C73.8055 39.5982 74.3146 39.5091 74.8086 39.4141C75.0599 39.3666 75.3156 39.3191 75.5733 39.2716C76.3745 39.1469 76.7096 39.2419 76.5786 39.5566C76.4798 39.7467 76.3681 39.8654 76.2435 39.9129C76.1232 39.9605 75.9943 39.9812 75.8569 39.9723C75.7752 39.9901 75.6958 40.005 75.6163 40.0198C74.8129 40.2425 74.0139 40.4445 73.2191 40.6256C72.8411 40.6909 72.6134 40.967 72.5403 41.457C72.4587 41.9172 72.3771 42.3834 72.2912 42.8585C72.1644 43.4761 72.0506 44.0759 71.9475 44.652C71.8379 45.2072 71.7284 45.7655 71.621 46.3267C71.3396 47.7608 71.0732 49.1891 70.8219 50.6143C70.6716 51.5408 70.5749 52.4791 70.5298 53.4293C70.3859 55.1722 70.9164 55.7275 72.1193 55.0921C73.2986 54.4685 74.4585 53.0106 75.5991 50.7212C76.1254 50.1036 76.3036 50.3115 76.1318 51.3389Z" fill="black"/>
<path d="M83.3741 49.551C83.5631 49.6549 83.6083 49.9845 83.5116 50.5368C83.3441 50.9644 83.155 51.3653 82.9445 51.7364C82.7383 52.1106 82.5063 52.458 82.2486 52.7816C82.2314 52.7816 82.2228 52.7905 82.2228 52.8054C82.0445 53.0192 81.8576 53.2151 81.6643 53.3874C80.0082 54.5751 79.0717 54.2396 78.8547 52.3778C78.2296 53.3517 77.8086 53.9575 77.5917 54.195C77.0633 54.774 76.4618 55.0977 75.7874 55.169C75.289 55.2254 74.9325 55.0828 74.7134 54.7414C74.4964 54.4029 74.462 53.8862 74.6103 53.1973C74.8336 52.1284 75.201 51.1396 75.71 50.228C76.3158 49.2155 77.0117 48.3603 77.7979 47.6625C78.2146 47.2765 78.6764 47.0687 79.1812 47.0449C79.6796 46.9915 80.0168 47.324 80.1951 48.0426C80.2574 48.2505 80.2337 48.4524 80.1263 48.6483C79.9889 48.871 79.8084 48.9453 79.585 48.874C79.5679 48.8829 79.5464 48.8859 79.5249 48.8859C79.5013 48.88 79.4819 48.8621 79.4648 48.8384C79.207 48.4821 78.975 48.3574 78.7688 48.4583C78.5669 48.5622 78.3564 48.7374 78.133 48.9809C77.1019 50.0974 76.3931 51.5197 76.0108 53.2448C75.9893 53.325 75.9764 53.4082 75.9764 53.4943C75.9764 53.5744 76.0022 53.6368 76.0537 53.6843C76.1869 53.7259 76.3287 53.6843 76.4833 53.5655C76.638 53.4468 76.784 53.2923 76.9215 53.1023C77.0633 52.9063 77.1836 52.7401 77.2824 52.6035C77.2996 52.5797 77.3082 52.5678 77.3082 52.5678C77.7721 51.8404 78.2296 51.1069 78.6829 50.3705C78.8719 49.9905 79.1318 49.7529 79.4648 49.6579C79.9395 49.5718 80.1693 49.8331 80.1521 50.4418C80.122 50.6734 80.0941 50.8991 80.0662 51.1188C79.9738 52.1165 80.0232 52.6836 80.2123 52.8173C80.4056 52.9449 80.6762 52.8945 81.0199 52.6629C81.3636 52.4253 81.6922 52.0423 82.008 51.5108C82.3216 50.9733 82.5837 50.4864 82.7899 50.0499C82.9961 49.6163 83.1894 49.4501 83.3741 49.551Z" fill="black"/>
<path d="M87.9754 48.7197C86.8864 49.5273 86.1067 50.1687 85.6384 50.6438C85.2947 50.9615 85.1014 51.2109 85.0628 51.392C85.0219 51.5672 85.0928 51.8642 85.2776 52.2828C85.2818 52.3066 85.2947 52.3363 85.3119 52.366C85.5289 52.8648 85.6814 53.3993 85.7673 53.9694C85.9263 55.1096 85.2947 56.0539 83.8685 56.7962C82.4422 57.5385 81.4605 57.7404 80.9214 57.4019C80.3844 57.0694 80.1782 56.5527 80.3028 55.846C80.4295 55.1423 80.8613 54.3732 81.6002 53.5418C82.3391 52.7045 82.8331 52.1106 83.078 51.7602C83.3186 51.4039 83.368 51.0476 83.2241 50.6913C83.1725 50.5666 83.121 50.4419 83.0694 50.3231C82.9384 50.038 82.8073 49.7381 82.6742 49.4204C82.4229 48.8503 82.2832 48.2743 82.2532 47.6863C82.2188 47.0925 82.3262 46.5758 82.5711 46.1304C82.8181 45.6791 83.2412 45.3792 83.8427 45.2277C84.1864 45.1505 84.4978 45.1565 84.7792 45.2515C85.0649 45.3465 85.3055 45.5722 85.5009 45.9285C85.6599 46.175 85.647 46.4333 85.458 46.7005C85.3313 46.8846 85.1852 46.9321 85.0198 46.8431C84.9038 46.8045 84.7985 46.7362 84.7019 46.6411C84.6954 46.6114 84.6933 46.5936 84.6933 46.5936C84.646 46.5639 84.6031 46.5313 84.5644 46.4986C84.5064 46.4125 84.4484 46.3501 84.3926 46.3086C84.1864 46.166 83.9909 46.1512 83.8083 46.2611C83.6236 46.365 83.5012 46.5907 83.4389 46.9381C83.4002 47.2172 83.3916 47.4904 83.4131 47.7576C83.4646 48.0842 83.5527 48.396 83.6794 48.6959C83.7654 48.8711 83.8427 49.0344 83.9114 49.1829C84.0704 49.6045 84.1993 49.8896 84.2981 50.038C84.3947 50.1895 84.4978 50.2399 84.6074 50.1924C84.7148 50.1449 85.6986 49.4442 87.5544 48.0902C87.954 47.8229 88.0957 48.0308 87.9754 48.7197ZM83.8169 55.3709C84.3088 55.0384 84.4806 54.5276 84.3324 53.8387C84.326 53.7912 84.311 53.7378 84.2895 53.6725C84.225 53.3013 84.1391 53.0192 84.0317 52.8292C83.9222 52.6391 83.7267 52.6807 83.4475 52.948C82.7429 53.7022 82.1135 54.5336 81.5572 55.4422C81.5185 55.5223 81.4842 55.5966 81.4541 55.6678C81.4541 55.6678 81.4498 55.6857 81.4369 55.7154C81.3983 55.7955 81.4004 55.8816 81.4455 55.9767C81.4863 56.0717 81.5572 56.1073 81.6603 56.0835C82.4229 56.1073 83.1424 55.8698 83.8169 55.3709Z" fill="black"/>
<path d="M91.9984 49.2797C91.6719 49.9864 91.2681 50.6575 90.7869 51.2988C90.3101 51.9343 89.7473 52.4094 89.0943 52.7241C88.4456 53.0418 87.9236 53.0745 87.522 52.8191C87.116 52.5578 86.9721 51.8571 87.0924 50.7169C87.2642 49.5143 87.5542 48.3473 87.9602 47.2131C88.0525 46.9607 88.2072 46.7736 88.4241 46.6548C88.5788 46.5687 88.7184 46.5776 88.8451 46.6786C88.9762 46.7736 89.0363 46.925 89.0256 47.1299C88.9568 47.5189 88.8731 47.9079 88.7764 48.2939C88.684 48.674 88.6217 48.9234 88.5874 49.0422C88.3919 49.731 88.2781 50.4377 88.2437 51.1563C88.2845 51.5601 88.6754 51.5126 89.4208 51.0138C90.1705 50.5149 90.8664 49.7281 91.5087 48.6502C92.1488 47.5753 92.4731 47.2339 92.4796 47.6288C92.4839 48.0267 92.3249 48.576 91.9984 49.2797ZM89.5926 44.5882C89.5518 44.6357 89.481 44.704 89.3778 44.7901C89.279 44.8703 89.1652 44.9326 89.0342 44.9801C88.9074 45.0277 88.8022 45.0158 88.7163 44.9445C88.6346 44.8733 88.6175 44.7129 88.6647 44.4576C88.7377 44.024 88.8237 43.6351 88.9225 43.2936C89.0191 42.9462 89.1502 42.5661 89.3177 42.1534C89.4315 41.9574 89.5626 41.8327 89.7129 41.7852C89.8676 41.7377 89.9986 41.7703 90.1082 41.8802C90.222 41.993 90.2671 42.1623 90.2456 42.3909C90.1705 43.2075 89.9535 43.9409 89.5926 44.5882Z" fill="black"/>
<path d="M99.6881 46.4692C99.8771 46.5731 99.9222 46.9027 99.8256 47.455C99.658 47.8826 99.469 48.2834 99.2585 48.6546C99.0523 49.0287 98.8203 49.3761 98.5625 49.6998C98.5453 49.6998 98.5368 49.7087 98.5368 49.7235C98.3585 49.9373 98.1716 50.1333 97.9783 50.3055C96.3222 51.4932 95.3856 51.1577 95.1687 49.296C94.5436 50.2699 94.1226 50.8756 93.9057 51.1132C93.3772 51.6922 92.7758 52.0158 92.1013 52.0871C91.603 52.1435 91.2464 52.001 91.0273 51.6595C90.8104 51.321 90.776 50.8044 90.9242 50.1155C91.1476 49.0465 91.5149 48.0578 92.024 47.1462C92.6297 46.1336 93.3257 45.2785 94.1119 44.5807C94.5286 44.1947 94.9904 43.9868 95.4952 43.9631C95.9935 43.9096 96.3308 44.2422 96.509 44.9608C96.5713 45.1686 96.5477 45.3705 96.4403 45.5665C96.3028 45.7892 96.1224 45.8634 95.899 45.7922C95.8818 45.8011 95.8603 45.804 95.8389 45.804C95.8152 45.7981 95.7959 45.7803 95.7787 45.7565C95.521 45.4002 95.289 45.2755 95.0828 45.3765C94.8808 45.4804 94.6703 45.6556 94.447 45.8991C93.4159 47.0155 92.7071 48.4378 92.3247 50.163C92.3032 50.2432 92.2904 50.3263 92.2904 50.4124C92.2904 50.4926 92.3161 50.5549 92.3677 50.6025C92.5009 50.644 92.6426 50.6025 92.7973 50.4837C92.9519 50.3649 93.098 50.2105 93.2355 50.0205C93.3772 49.8245 93.4975 49.6582 93.5963 49.5216C93.6135 49.4979 93.6221 49.486 93.6221 49.486C94.0861 48.7585 94.5436 48.0251 94.9968 47.2887C95.1859 46.9086 95.4458 46.6711 95.7787 46.5761C96.2534 46.49 96.4833 46.7513 96.4661 47.36C96.436 47.5916 96.4081 47.8172 96.3802 48.037C96.2878 49.0347 96.3372 49.6018 96.5262 49.7354C96.7195 49.8631 96.9902 49.8126 97.3339 49.581C97.6776 49.3435 98.0062 48.9604 98.322 48.4289C98.6356 47.8915 98.8976 47.4045 99.1038 46.968C99.31 46.5345 99.5034 46.3682 99.6881 46.4692Z" fill="black"/>
<path d="M152.28 7.29647C152.245 7.4865 152.213 7.67654 152.185 7.86658C151.859 9.7996 151.489 11.7029 151.077 13.5795C148.899 22.9002 146.467 31.9655 143.782 40.7784C142.917 43.629 142.015 46.4409 141.076 49.2113C140.141 51.9757 139.196 54.7282 138.24 57.4778C138.021 58.1192 137.796 58.7665 137.562 59.4257C137.549 59.4732 137.538 59.5088 137.527 59.5326C137.48 59.7226 137.42 59.883 137.347 60.0196C137.272 60.1621 137.16 60.2482 137.012 60.2809C136.947 60.2868 136.876 60.2749 136.797 60.2452C136.722 60.2126 136.655 60.1651 136.599 60.1027C136.559 60.0463 136.524 59.9513 136.496 59.8176C136.473 59.69 136.471 59.5831 136.488 59.497C136.629 58.8704 136.797 58.2766 136.986 57.7154C137.403 56.4 137.824 55.0816 138.249 53.7603C139.044 51.2987 139.83 48.8401 140.603 46.3845C142.298 40.9061 143.881 35.3386 145.355 29.6851C146.832 24.0315 148.259 18.3304 149.633 12.5818C150.194 10.3578 150.604 8.0091 150.862 5.53864C150.918 5.11996 150.952 4.68347 150.965 4.23214C150.976 3.77487 150.959 3.30571 150.914 2.83062C150.759 1.81809 150.402 1.43505 149.848 1.67853C149.35 1.91608 148.888 2.23082 148.465 2.61683C147.468 3.53732 146.493 4.52313 145.544 5.57427C140.416 11.3229 135.903 18.1018 132.003 25.9081C131.951 26.0358 131.891 26.1575 131.822 26.2763C130.469 28.9606 129.135 31.6626 127.818 34.3766C126.499 37.0935 125.232 39.8728 124.012 42.7144C123.754 43.3083 123.482 43.8665 123.196 44.3891C122.897 44.9681 122.491 45.2502 121.976 45.2324C121.763 45.2324 121.576 45.1225 121.417 44.8998C121.263 44.6801 121.181 44.401 121.177 44.0684C121.194 43.1509 121.254 42.2482 121.357 41.3604C121.684 38.5752 122.049 35.8137 122.457 33.082C122.502 32.6633 122.547 32.2624 122.594 31.8824C122.674 30.8698 122.835 29.9197 123.076 29.0318C123.069 29.017 123.061 29.014 123.05 29.0199C122.964 28.9724 122.878 28.9368 122.792 28.9131C122.71 28.8893 122.637 28.9427 122.569 29.0675C122.322 29.5752 122.087 30.0948 121.864 30.6234C120.06 35.1783 118.283 39.7659 116.537 44.3891C114.789 49.0153 113.096 53.692 111.459 58.428C111.322 58.8853 111.158 59.2654 110.969 59.5682C110.785 59.877 110.51 60.0225 110.145 60.0077C109.983 59.975 109.846 59.8592 109.732 59.6632C109.623 59.4732 109.586 59.2743 109.62 59.0694C109.751 58.4339 109.904 57.8282 110.076 57.2522C110.561 55.6042 111.042 53.9622 111.519 52.3231C112.475 49.0539 113.42 45.7728 114.355 42.4769C115.809 37.4261 117.037 32.1734 118.041 26.7158C118.423 24.6194 118.694 22.437 118.848 20.1714C118.938 18.9777 118.908 17.7425 118.754 16.4657C118.462 14.4703 117.83 13.1223 116.864 12.4156C115.895 11.7029 114.694 11.507 113.263 11.8217C111.837 12.1305 110.286 12.8313 108.615 13.924C106.948 15.0167 105.262 16.3677 103.554 17.9741C101.849 19.5746 100.221 21.2938 98.6742 23.1288C97.1233 24.9668 95.7593 26.793 94.5844 28.6042C93.4116 30.4096 92.518 32.0694 91.9037 33.5808C91.2743 35.2288 90.7781 37.0074 90.4172 38.9137C90.2282 39.8401 90.1638 40.8141 90.2196 41.8355C90.2261 42.0433 90.1681 42.2096 90.0478 42.3343C89.9232 42.4531 89.7771 42.5095 89.6096 42.5006C89.3475 42.4472 89.1607 42.2007 89.0511 41.7642C88.9545 41.1882 88.9351 40.6478 88.991 40.1489C89.1113 38.8899 89.3218 37.6755 89.6182 36.5026C90.1638 34.4686 91.0853 32.3189 92.3848 30.0533C93.6865 27.7907 95.2438 25.5637 97.0589 23.3783C98.8697 21.1869 100.788 19.1737 102.816 17.3446C104.843 15.5155 106.854 14.0131 108.847 12.8313C110.845 11.6435 112.679 10.9368 114.346 10.7052C116.013 10.4766 117.383 10.8656 118.462 11.8692C119.538 12.8669 120.189 14.6425 120.412 17.1902C120.519 18.8382 120.489 20.4268 120.317 21.953C120.06 24.2186 119.727 26.4248 119.321 28.5686C118.913 30.7065 118.47 32.8058 117.989 34.8636C117.834 35.5138 117.813 35.8226 117.929 35.79C118.049 35.7514 118.206 35.4812 118.401 34.9823C119.11 33.2423 119.821 31.5112 120.532 29.792C121.018 28.6458 121.52 27.5175 122.036 26.407C122.098 26.2585 122.165 26.11 122.234 25.9675C122.526 25.2964 122.908 24.8124 123.385 24.5185C123.739 24.3522 124.059 24.4175 124.347 24.7085C124.639 25.0025 124.779 25.4924 124.768 26.1813C124.755 26.2615 124.745 26.3357 124.734 26.407C124.699 27.3185 124.635 28.2064 124.545 29.0675C124.281 31.1905 123.999 33.3047 123.703 35.4099C123.565 36.4967 123.428 37.5953 123.29 38.7118C123.256 38.8632 123.213 39.1512 123.161 39.5788C123.103 39.944 123.045 40.3093 122.99 40.6715C122.938 41.0368 122.895 41.3099 122.861 41.4911C122.917 41.4139 123.419 40.3835 124.364 38.403C125.647 35.695 127.167 32.5297 128.927 28.9012C130.684 25.2667 132.071 22.4875 133.085 20.5634C134.975 17.1041 137.008 13.8972 139.186 10.9428C141.362 7.99129 143.653 5.25358 146.059 2.73561C146.654 2.15065 147.271 1.60727 147.906 1.10842C148.048 1.01341 148.184 0.906511 148.31 0.787738C148.916 0.30671 149.586 0.0454102 150.321 0.00384023C151.713 -0.0733622 152.46 1.01341 152.563 3.27008C152.619 4.6716 152.525 6.01373 152.28 7.29647ZM122.981 28.9368C123.026 28.9695 123.054 28.9932 123.067 29.0081C123.067 29.0081 123.069 29.017 123.076 29.0318C123.086 29.0318 123.088 29.0259 123.084 29.0081C123.061 28.9932 123.026 28.9695 122.981 28.9368Z" fill="#6E685E"/>
<mask id="mask0_97_55" style="mask-type:luminance" maskUnits="userSpaceOnUse" x="148" y="40" width="5" height="7">
<path d="M148.858 40.3622H153V46.0871H148.858V40.3622Z" fill="white"/>
</mask>
<g mask="url(#mask0_97_55)">
<mask id="mask1_97_55" style="mask-type:luminance" maskUnits="userSpaceOnUse" x="148" y="40" width="5" height="7">
<path d="M150.929 40.3622C149.784 40.3622 148.858 41.642 148.858 43.2247C148.858 44.8043 149.784 46.0871 150.929 46.0871C152.072 46.0871 153 44.8043 153 43.2247C153 41.642 152.072 40.3622 150.929 40.3622Z" fill="white"/>
</mask>
<g mask="url(#mask1_97_55)">
<path d="M148.858 40.3622H153V46.0871H148.858V40.3622Z" fill="black"/>
</g>
</g>
</svg>
