<svg width="88" height="50" viewBox="0 0 88 50" fill="none" xmlns="http://www.w3.org/2000/svg">
<path d="M41.9822 26.4556C41.1718 26.4829 40.3626 26.5717 39.5558 26.722C39.1963 26.7732 38.8318 26.8244 38.4637 26.8791C35.0933 27.3266 31.7304 27.914 28.3774 28.6416C28.2057 28.674 28.0673 28.6997 27.9623 28.7167C27.7745 28.7355 27.6386 28.7628 27.5571 28.7987C27.478 28.8363 27.4187 28.9131 27.3791 29.031C27.3396 29.1454 27.2964 29.3298 27.2507 29.5843C27.2173 29.7346 27.1815 29.9191 27.1419 30.1377C26.7466 31.9326 26.4019 33.748 26.1091 35.5823C25.9139 36.7675 25.7928 37.9664 25.7434 39.1824C25.7162 39.5615 25.7298 39.9253 25.7829 40.2754C25.8348 40.6221 25.9781 40.9124 26.2129 41.1498C26.245 41.172 26.2598 41.2062 26.2574 41.2523C26.2536 41.2967 26.2388 41.3411 26.2129 41.3821C26.1857 41.4265 26.1585 41.4589 26.1289 41.4777C25.6409 41.6775 25.3184 41.488 25.1603 40.9107C25.0676 40.5828 25.0219 40.2395 25.0219 39.8792C25.0182 39.8519 25.017 39.8314 25.017 39.8177C24.9972 39.2029 25.017 38.5864 25.0763 37.9664C25.1356 37.3482 25.2097 36.7214 25.2986 36.0878C25.5877 34.2023 25.9324 32.3237 26.3315 30.4519C26.3537 30.375 26.3685 30.2982 26.376 30.2196C26.3982 30.1291 26.4217 30.0335 26.4451 29.9327C26.4748 29.7961 26.502 29.6629 26.5292 29.5297C26.5551 29.3982 26.5563 29.2615 26.5341 29.1198C26.481 29.0754 26.4316 29.0515 26.3858 29.0515C26.3389 29.0481 26.2944 29.0566 26.2524 29.0788C26.245 29.0788 26.2351 29.0788 26.2228 29.0788C25.8274 29.1574 25.4321 29.2359 25.0367 29.3179C24.9243 29.3418 24.8094 29.364 24.6908 29.3862C24.5425 29.4272 24.4239 29.516 24.335 29.6526C24.2485 29.7858 24.1682 29.943 24.0928 30.124C23.9903 30.3665 23.8902 30.6056 23.7914 30.8413C23.3664 31.8438 22.9377 32.8395 22.5065 33.8266C21.8604 35.2663 21.1734 36.6684 20.4458 38.0347C19.7205 39.3976 18.9397 40.6921 18.1033 41.9218C17.0458 43.5015 15.9005 44.931 14.6688 46.2119C12.7773 48.111 10.7079 49.2279 8.46183 49.5661C6.35043 49.9025 4.3737 49.479 2.53164 48.2954C2.01151 47.9573 1.53709 47.5269 1.10839 47.0043C0.821764 46.6303 0.583321 46.2119 0.391825 45.7473C0.197859 45.2862 0.0730776 44.7704 0.0162464 44.1966C-0.0294654 43.5032 0.0211882 42.844 0.169443 42.2155C0.317698 41.5904 0.55367 41.003 0.876124 40.453C1.31471 39.6879 1.81507 39.015 2.37844 38.4309C2.91586 37.8434 3.47923 37.314 4.06855 36.8392C4.65909 36.3662 5.25953 35.9307 5.87231 35.5344C6.8545 34.8838 7.85398 34.3031 8.872 33.7924C9.89249 33.2784 10.9229 32.8087 11.9606 32.3852C14.418 31.4339 16.9025 30.6432 19.4129 30.0147C20.6879 29.6595 21.9641 29.3623 23.2428 29.1198C23.5949 29.0703 23.847 28.8158 23.9989 28.3547C24.272 27.6305 24.5475 26.9047 24.8242 26.1755C25.2554 25.0551 25.6755 23.9211 26.0844 22.7734C27.9882 17.3869 29.7858 11.9355 31.4759 6.41915C31.6143 5.9512 31.7502 5.47642 31.8861 4.99823C31.9479 4.75742 32.0121 4.5132 32.0788 4.26727C32.1579 3.94961 32.3136 3.7515 32.5483 3.67294C32.6793 3.65074 32.7806 3.6849 32.8497 3.77541C32.9214 3.86251 32.9436 3.99402 32.914 4.17163C32.8806 4.32192 32.8411 4.46367 32.7954 4.59518C32.5248 5.54303 32.2963 6.49259 32.1085 7.44386C32.0356 7.78542 31.9664 8.11845 31.9009 8.44124C31.2189 11.5256 30.5333 14.6083 29.8451 17.6909C29.3213 20.0682 28.7925 22.4524 28.2588 24.8433C28.1068 25.5504 27.9573 26.254 27.8091 26.9542C27.7794 27.096 27.7473 27.2343 27.7152 27.371C27.7053 27.4085 27.6979 27.4427 27.6954 27.4734C27.6757 27.5742 27.6608 27.6715 27.6509 27.7672C27.6411 27.8594 27.6534 27.9448 27.6905 28.0268C27.7597 28.078 27.8363 28.0985 27.9227 28.0882C28.008 28.0797 28.0871 28.0678 28.16 28.0541C28.2118 28.0319 28.2637 28.0165 28.3132 28.0063C28.6616 27.9516 29.0112 27.8867 29.3608 27.8082C29.8352 27.7176 30.3146 27.634 30.7989 27.5554C33.4106 27.1284 36.0286 26.7117 38.6515 26.3053C39.5138 26.1686 40.3712 26.0593 41.2212 25.9774C41.3003 25.9774 41.3806 25.9688 41.4634 25.95C41.5091 25.9415 41.5597 25.933 41.6165 25.9227C41.7216 25.9056 41.8266 25.8988 41.9328 25.9022C42.0378 25.9073 42.1404 25.9364 42.2392 25.991C42.2615 26.0047 42.2788 26.0303 42.2886 26.0662C42.301 26.1037 42.3047 26.1328 42.2985 26.155C42.301 26.196 42.2936 26.2352 42.2738 26.2711C42.254 26.3087 42.2355 26.336 42.2195 26.3531C42.1466 26.4077 42.0675 26.4419 41.9822 26.4556ZM23.2923 30.083C23.3145 29.9976 23.312 29.9242 23.2824 29.8644C23.2527 29.8063 23.2107 29.7807 23.1588 29.7893C23.0723 29.7944 22.9834 29.8132 22.892 29.8439C22.845 29.8542 22.7993 29.8627 22.7536 29.8712C19.6032 30.5134 16.4738 31.4117 13.3641 32.5628C12.1781 32.9915 11.0019 33.4833 9.83566 34.0384C8.67309 34.5951 7.53029 35.2322 6.40603 35.9512C5.80313 36.3388 5.21381 36.7624 4.63686 37.2218C4.06113 37.6829 3.50518 38.2038 2.97146 38.7862C2.4118 39.3651 1.91638 40.0397 1.48397 40.8083C0.983609 41.7459 0.742695 42.6886 0.762462 43.6364C0.78223 44.5826 1.05156 45.4536 1.56798 46.246C1.95344 46.7823 2.39079 47.2263 2.87756 47.5781C4.67021 48.871 6.69266 49.3201 8.94613 48.9239C9.52556 48.818 10.1816 48.5892 10.913 48.234C11.6308 47.8821 12.3177 47.4347 12.9737 46.8882C13.6285 46.3451 14.2549 45.7337 14.8516 45.0505C16.3243 43.3734 17.6561 41.4931 18.8496 39.4078C19.6761 38.0006 20.4421 36.5369 21.1475 35.0153C21.8517 33.4953 22.5324 31.9531 23.1885 30.3904C23.2243 30.2777 23.2589 30.1752 23.2923 30.083ZM26.9541 27.5622C27.3717 25.5401 27.8103 23.5215 28.2687 21.5028C28.2884 21.3935 28.3552 21.0776 28.4713 20.5533C28.5899 20.0307 28.7233 19.4192 28.8716 18.7224C29.0198 18.0256 29.1545 17.3681 29.2768 16.7482C29.3979 16.1299 29.4819 15.6671 29.5288 15.3614C29.5746 15.0574 29.5498 15.0335 29.4547 15.2931C29.4275 15.3529 29.4102 15.4075 29.4004 15.4571C29.3213 15.6808 29.2447 15.9011 29.173 16.1197C28.5701 17.9061 27.9623 19.6908 27.3495 21.4755C26.7367 23.2568 26.0955 25.021 25.4271 26.7698C25.3641 26.9337 25.2986 27.1079 25.2295 27.289C25.101 27.6169 24.9737 27.9499 24.8489 28.2864C24.7995 28.423 24.7909 28.5323 24.8242 28.6143C24.86 28.6962 24.9292 28.7287 25.0318 28.7099C25.1961 28.6792 25.3592 28.6399 25.521 28.5938C25.7805 28.5169 26.0399 28.4554 26.2969 28.4093C26.4909 28.382 26.6354 28.2966 26.7318 28.1497C26.8269 27.9994 26.901 27.8047 26.9541 27.5622Z" fill="white"/>
<path d="M33.2864 31.7715C33.3618 31.8723 33.2975 32.0977 33.0937 32.4478C32.8923 32.7945 32.6699 33.0968 32.4265 33.3564C32.1819 33.616 31.8977 33.8824 31.5716 34.1557C31.3566 34.3384 31.1169 34.4323 30.8501 34.4357C30.5857 34.4409 30.435 34.2496 30.3954 33.8619C30.3584 33.4759 30.3868 33.0746 30.4794 32.6596C30.5709 32.2463 30.5795 32.0413 30.5041 32.0448C30.4275 32.0448 30.2867 32.1677 30.0792 32.4137C29.5355 33.0695 29.0414 33.7987 28.5966 34.5997C28.4817 34.8559 28.3174 35.0147 28.1024 35.0779C27.9937 35.1018 27.9047 35.0711 27.8356 34.9891C27.7664 34.9037 27.7491 34.7978 27.7812 34.6748C28.0579 33.6604 28.3384 32.6596 28.6213 31.6759C28.6905 31.4675 28.8054 31.3241 28.9672 31.2455C29.0364 31.2148 29.1031 31.2318 29.1699 31.3001C29.239 31.365 29.2786 31.447 29.2885 31.5461C29.2885 31.6417 29.2712 31.7578 29.239 31.8945C29.2254 31.9765 29.2119 32.055 29.1995 32.1267C29.1859 32.1951 29.1847 32.2531 29.1946 32.2975C29.2069 32.3436 29.2366 32.3522 29.2835 32.3249C29.3391 32.2668 29.3984 32.207 29.4614 32.1472C29.6023 31.9884 29.7406 31.8381 29.8765 31.6964C29.9976 31.5649 30.1249 31.447 30.2571 31.3411C30.3917 31.2318 30.535 31.1481 30.687 31.0884C30.9366 31.0201 31.1231 31.0662 31.2454 31.225C31.3665 31.3855 31.4036 31.6315 31.3541 31.9628C31.2973 32.2685 31.238 32.5708 31.1762 32.8714C31.0898 33.1549 31.0922 33.3598 31.1812 33.4862C31.2726 33.6143 31.6074 33.3888 32.1844 32.8099L32.6143 32.3385C33.022 31.8654 33.2469 31.6759 33.2864 31.7715Z" fill="white"/>
<path d="M36.8787 30.8824C36.9874 30.9422 37.0134 31.1318 36.9578 31.4494C36.8614 31.6953 36.7527 31.9259 36.6316 32.1394C36.513 32.3546 36.3796 32.5544 36.2313 32.7405C36.2214 32.7405 36.2165 32.7457 36.2165 32.7542C36.1139 32.8772 36.0065 32.9899 35.8953 33.0889C34.9427 33.7721 34.4041 33.5791 34.2793 32.5083C33.9198 33.0685 33.6776 33.4169 33.5528 33.5535C33.2489 33.8865 32.903 34.0727 32.5151 34.1137C32.2284 34.1461 32.0234 34.0641 31.8973 33.8677C31.7726 33.673 31.7528 33.3759 31.838 32.9796C31.9665 32.3648 32.1778 31.7961 32.4706 31.2718C32.819 30.6894 33.2193 30.1976 33.6715 29.7962C33.9111 29.5742 34.1768 29.4547 34.4671 29.441C34.7537 29.4103 34.9477 29.6015 35.0502 30.0148C35.086 30.1344 35.0725 30.2505 35.0107 30.3632C34.9316 30.4913 34.8278 30.534 34.6994 30.493C34.6895 30.4982 34.6771 30.4999 34.6648 30.4999C34.6512 30.4964 34.64 30.4862 34.6302 30.4725C34.4819 30.2676 34.3485 30.1959 34.2299 30.2539C34.1137 30.3137 33.9927 30.4145 33.8642 30.5545C33.2712 31.1967 32.8635 32.0147 32.6436 33.007C32.6312 33.0531 32.6238 33.1009 32.6238 33.1504C32.6238 33.1965 32.6386 33.2324 32.6683 33.2597C32.7449 33.2836 32.8264 33.2597 32.9154 33.1914C33.0043 33.1231 33.0883 33.0343 33.1674 32.925C33.2489 32.8123 33.3181 32.7166 33.3749 32.6381C33.3848 32.6244 33.3898 32.6176 33.3898 32.6176C33.6566 32.1992 33.9198 31.7773 34.1805 31.3538C34.2892 31.1352 34.4387 30.9985 34.6302 30.9439C34.9032 30.8944 35.0354 31.0447 35.0255 31.3948C35.0082 31.528 34.9922 31.6578 34.9761 31.7842C34.923 32.358 34.9514 32.6842 35.0601 32.761C35.1713 32.8345 35.327 32.8054 35.5246 32.6722C35.7223 32.5356 35.9113 32.3153 36.0929 32.0096C36.2733 31.7005 36.424 31.4204 36.5427 31.1693C36.6613 30.92 36.7724 30.8243 36.8787 30.8824Z" fill="white"/>
<path d="M40.1003 30.4043C39.4739 30.8688 39.0254 31.2377 38.7561 31.511C38.5584 31.6937 38.4472 31.8372 38.425 31.9414C38.4015 32.0421 38.4423 32.2129 38.5486 32.4537C38.551 32.4674 38.5584 32.4845 38.5683 32.5015C38.6931 32.7885 38.7808 33.0959 38.8302 33.4238C38.9217 34.0796 38.5584 34.6227 37.7381 35.0496C36.9177 35.4766 36.3531 35.5927 36.043 35.398C35.7342 35.2068 35.6156 34.9096 35.6872 34.5031C35.7601 34.0984 36.0085 33.656 36.4334 33.1778C36.8584 32.6962 37.1426 32.3547 37.2834 32.1531C37.4218 31.9482 37.4502 31.7433 37.3675 31.5383C37.3378 31.4666 37.3082 31.3949 37.2785 31.3265C37.2031 31.1626 37.1278 30.9901 37.0512 30.8074C36.9066 30.4795 36.8263 30.1481 36.809 29.81C36.7893 29.4684 36.851 29.1712 36.9919 28.9151C37.134 28.6555 37.3773 28.483 37.7233 28.3959C37.9209 28.3515 38.1001 28.3549 38.2619 28.4095C38.4262 28.4642 38.5646 28.594 38.677 28.7989C38.7685 28.9407 38.761 29.0893 38.6523 29.243C38.5794 29.3489 38.4954 29.3762 38.4003 29.325C38.3336 29.3028 38.273 29.2635 38.2174 29.2088C38.2137 29.1917 38.2125 29.1815 38.2125 29.1815C38.1853 29.1644 38.1606 29.1456 38.1384 29.1268C38.105 29.0773 38.0717 29.0414 38.0395 29.0175C37.9209 28.9356 37.8085 28.927 37.7035 28.9902C37.5972 29.05 37.5268 29.1798 37.491 29.3796C37.4688 29.5401 37.4638 29.6973 37.4762 29.851C37.5058 30.0388 37.5565 30.2182 37.6294 30.3906C37.6788 30.4914 37.7233 30.5853 37.7628 30.6707C37.8542 30.9132 37.9284 31.0772 37.9852 31.1626C38.0408 31.2497 38.1001 31.2787 38.1631 31.2514C38.2249 31.2241 38.7907 30.821 39.8581 30.0422C40.0879 29.8885 40.1695 30.0081 40.1003 30.4043ZM37.7084 34.2299C37.9914 34.0386 38.0902 33.7448 38.005 33.3486C38.0012 33.3213 37.9926 33.2906 37.9802 33.253C37.9432 33.0395 37.8938 32.8773 37.832 32.768C37.769 32.6587 37.6566 32.6826 37.4959 32.8363C37.0907 33.2701 36.7287 33.7483 36.4087 34.2709C36.3865 34.317 36.3667 34.3597 36.3494 34.4007C36.3494 34.4007 36.347 34.4109 36.3396 34.428C36.3173 34.4741 36.3186 34.5236 36.3445 34.5783C36.368 34.6329 36.4087 34.6534 36.468 34.6398C36.9066 34.6534 37.3205 34.5168 37.7084 34.2299Z" fill="white"/>
<path d="M43.7881 29.9273C43.3162 30.9486 42.8343 31.7239 42.3401 32.2568C41.846 32.7896 41.2838 33.0407 40.655 33.0082C40.0298 32.9775 39.721 32.4583 39.7309 31.4507C39.758 30.9417 39.8136 30.4362 39.8989 29.9341C40.1102 28.7693 40.3251 27.608 40.5463 26.4501C40.6179 26.0402 40.6945 25.6269 40.7736 25.2068C40.7958 25.1077 40.8156 25.0121 40.8329 24.9199C40.865 24.7662 40.8971 24.6125 40.9268 24.4622C40.9688 24.194 40.8823 24.0728 40.6649 24.1001C40.5463 24.124 40.4277 24.1445 40.3091 24.1616C40.2535 24.1753 40.1929 24.1872 40.1262 24.1957C40.0669 24.2231 40.0051 24.2487 39.9384 24.2709C39.8297 24.3033 39.7235 24.3307 39.6172 24.3529C39.5085 24.3717 39.4047 24.3512 39.3059 24.2914C39.2799 24.2828 39.2589 24.2641 39.2416 24.2367C39.2219 24.2094 39.2107 24.1753 39.207 24.1343C39.2144 24.1121 39.2256 24.083 39.2416 24.0455C39.2589 24.0096 39.2812 23.984 39.3108 23.9703C39.3973 23.8986 39.4862 23.8405 39.5777 23.7995C39.8421 23.7312 40.1003 23.6697 40.3535 23.6151C40.4548 23.598 40.5426 23.5809 40.6155 23.5673C40.7835 23.5365 40.9045 23.5041 40.9811 23.4716C41.0602 23.4358 41.1195 23.3623 41.1591 23.253C41.2011 23.1403 41.2455 22.9661 41.2925 22.7338C41.3184 22.6109 41.353 22.4742 41.3963 22.324C41.4914 21.8919 41.5865 21.4547 41.6829 21.0123C41.7286 20.8074 41.7768 20.6093 41.8262 20.418C41.8583 20.2267 41.93 20.0696 42.0387 19.9466C42.1474 19.8612 42.2463 19.8493 42.3352 19.9125C42.3612 19.9313 42.3846 19.9654 42.4044 20.0149C42.4242 20.0662 42.4353 20.1106 42.439 20.1516C42.4612 20.3804 42.4452 20.6093 42.3896 20.8415C42.3723 20.8928 42.3574 20.9508 42.3451 21.0192C42.308 21.2378 42.271 21.4598 42.2314 21.6818C42.1449 22.1019 42.0708 22.5255 42.009 22.9524C41.9856 23.031 41.9893 23.0959 42.0189 23.1505C42.0511 23.2052 42.0943 23.2291 42.1474 23.2189C42.4501 23.1745 42.7429 23.1232 43.0271 23.0686C43.1716 23.0412 43.3186 23.0139 43.4669 22.9866C43.9277 22.9149 44.1204 22.9695 44.0451 23.1505C43.9882 23.2598 43.924 23.3282 43.8523 23.3555C43.7832 23.3828 43.709 23.3948 43.63 23.3896C43.583 23.3999 43.5373 23.4084 43.4916 23.417C43.0295 23.5451 42.5699 23.6612 42.1128 23.7654C41.8954 23.8029 41.7644 23.9618 41.7224 24.2436C41.6755 24.5083 41.6285 24.7764 41.5791 25.0497C41.5062 25.4049 41.4407 25.7499 41.3814 26.0812C41.3184 26.4006 41.2554 26.7216 41.1936 27.0444C41.0318 27.8693 40.8786 28.6908 40.7341 29.5106C40.6476 30.0434 40.592 30.5831 40.566 31.1296C40.4833 32.1321 40.7884 32.4515 41.4803 32.086C42.1585 31.7273 42.8257 30.8888 43.4817 29.572C43.7844 29.2168 43.8869 29.3364 43.7881 29.9273Z" fill="white"/>
<path d="M47.9539 28.899C48.0626 28.9587 48.0886 29.1483 48.033 29.466C47.9366 29.7119 47.8279 29.9424 47.7068 30.1559C47.5882 30.3711 47.4548 30.5709 47.3065 30.7571C47.2966 30.7571 47.2917 30.7622 47.2917 30.7708C47.1891 30.8937 47.0817 31.0064 46.9705 31.1055C46.0179 31.7886 45.4793 31.5956 45.3545 30.5248C44.995 31.085 44.7528 31.4334 44.628 31.57C44.3241 31.9031 43.9782 32.0892 43.5903 32.1302C43.3036 32.1626 43.0985 32.0807 42.9725 31.8843C42.8477 31.6896 42.828 31.3924 42.9132 30.9962C43.0417 30.3814 43.253 29.8127 43.5458 29.2883C43.8942 28.706 44.2945 28.2141 44.7466 27.8128C44.9863 27.5907 45.2519 27.4712 45.5423 27.4575C45.8289 27.4268 46.0229 27.6181 46.1254 28.0314C46.1612 28.1509 46.1477 28.2671 46.0859 28.3798C46.0068 28.5079 45.903 28.5506 45.7745 28.5096C45.7647 28.5147 45.7523 28.5164 45.74 28.5164C45.7264 28.513 45.7152 28.5027 45.7054 28.4891C45.5571 28.2841 45.4237 28.2124 45.3051 28.2705C45.1889 28.3302 45.0679 28.431 44.9394 28.5711C44.3464 29.2132 43.9387 30.0313 43.7187 31.0235C43.7064 31.0696 43.699 31.1174 43.699 31.167C43.699 31.2131 43.7138 31.2489 43.7435 31.2763C43.8201 31.3002 43.9016 31.2763 43.9905 31.208C44.0795 31.1396 44.1635 31.0508 44.2426 30.9415C44.3241 30.8288 44.3933 30.7332 44.4501 30.6546C44.46 30.641 44.465 30.6341 44.465 30.6341C44.7318 30.2157 44.995 29.7939 45.2557 29.3703C45.3644 29.1517 45.5139 29.0151 45.7054 28.9604C45.9784 28.9109 46.1106 29.0612 46.1007 29.4113C46.0834 29.5445 46.0673 29.6743 46.0513 29.8007C45.9982 30.3745 46.0266 30.7007 46.1353 30.7776C46.2465 30.851 46.4022 30.822 46.5998 30.6888C46.7975 30.5521 46.9865 30.3318 47.1681 30.0261C47.3485 29.717 47.4992 29.4369 47.6178 29.1859C47.7365 28.9365 47.8476 28.8409 47.9539 28.899Z" fill="white"/>
<path d="M50.6003 28.4208C49.9739 28.8853 49.5254 29.2542 49.2561 29.5275C49.0584 29.7102 48.9472 29.8537 48.925 29.9578C48.9015 30.0586 48.9423 30.2294 49.0486 30.4702C49.051 30.4839 49.0584 30.5009 49.0683 30.518C49.1931 30.8049 49.2808 31.1123 49.3302 31.4403C49.4217 32.0961 49.0584 32.6392 48.2381 33.0661C47.4177 33.4931 46.8531 33.6092 46.543 33.4145C46.2342 33.2232 46.1156 32.9261 46.1872 32.5196C46.2601 32.1149 46.5085 31.6725 46.9334 31.1943C47.3584 30.7127 47.6426 30.3711 47.7834 30.1696C47.9218 29.9647 47.9502 29.7597 47.8675 29.5548C47.8378 29.4831 47.8082 29.4113 47.7785 29.343C47.7031 29.1791 47.6278 29.0066 47.5512 28.8238C47.4066 28.4959 47.3263 28.1646 47.309 27.8265C47.2893 27.4849 47.351 27.1877 47.4919 26.9315C47.634 26.672 47.8773 26.4995 48.2233 26.4124C48.4209 26.368 48.6001 26.3714 48.7619 26.426C48.9262 26.4807 49.0646 26.6105 49.177 26.8154C49.2685 26.9572 49.261 27.1057 49.1523 27.2595C49.0794 27.3653 48.9954 27.3927 48.9003 27.3414C48.8336 27.3192 48.773 27.2799 48.7174 27.2253C48.7137 27.2082 48.7125 27.198 48.7125 27.198C48.6853 27.1809 48.6606 27.1621 48.6384 27.1433C48.605 27.0938 48.5717 27.0579 48.5395 27.034C48.4209 26.952 48.3085 26.9435 48.2035 27.0067C48.0972 27.0665 48.0268 27.1963 47.991 27.3961C47.9688 27.5566 47.9638 27.7137 47.9762 27.8674C48.0058 28.0553 48.0565 28.2346 48.1294 28.4071C48.1788 28.5079 48.2233 28.6018 48.2628 28.6872C48.3542 28.9297 48.4284 29.0937 48.4852 29.1791C48.5408 29.2662 48.6001 29.2952 48.6631 29.2679C48.7249 29.2406 49.2907 28.8375 50.3581 28.0587C50.5879 27.905 50.6695 28.0246 50.6003 28.4208ZM48.2084 32.2464C48.4914 32.0551 48.5902 31.7613 48.505 31.3651C48.5012 31.3378 48.4926 31.307 48.4802 31.2695C48.4432 31.056 48.3938 30.8937 48.332 30.7844C48.269 30.6751 48.1566 30.699 47.9959 30.8528C47.5907 31.2865 47.2287 31.7647 46.9087 32.2873C46.8865 32.3335 46.8667 32.3761 46.8494 32.4171C46.8494 32.4171 46.847 32.4274 46.8396 32.4445C46.8173 32.4906 46.8186 32.5401 46.8445 32.5948C46.868 32.6494 46.9087 32.6699 46.968 32.6562C47.4066 32.6699 47.8205 32.5333 48.2084 32.2464Z" fill="white"/>
<path d="M52.9143 28.7429C52.7265 29.1494 52.4942 29.5354 52.2175 29.9043C51.9432 30.2698 51.6195 30.543 51.2439 30.724C50.8708 30.9068 50.5706 30.9256 50.3396 30.7787C50.1061 30.6284 50.0233 30.2254 50.0925 29.5695C50.1913 28.8779 50.3581 28.2067 50.5916 27.5543C50.6447 27.4091 50.7337 27.3015 50.8585 27.2332C50.9474 27.1837 51.0277 27.1888 51.1006 27.2469C51.176 27.3015 51.2106 27.3886 51.2044 27.5065C51.1649 27.7302 51.1167 27.9539 51.0611 28.1759C51.008 28.3945 50.9721 28.538 50.9524 28.6063C50.8399 29.0025 50.7745 29.409 50.7547 29.8223C50.7782 30.0546 51.003 30.0272 51.4317 29.7403C51.8629 29.4534 52.2632 29.0008 52.6326 28.3809C53.0008 27.7626 53.1873 27.5662 53.191 27.7934C53.1935 28.0222 53.1021 28.3382 52.9143 28.7429ZM51.5306 26.0446C51.5071 26.0719 51.4663 26.1112 51.407 26.1607C51.3502 26.2068 51.2847 26.2427 51.2093 26.27C51.1364 26.2973 51.0759 26.2905 51.0265 26.2495C50.9795 26.2085 50.9697 26.1163 50.9968 25.9694C51.0388 25.7201 51.0883 25.4963 51.1451 25.2999C51.2007 25.1001 51.2761 24.8815 51.3724 24.6441C51.4379 24.5314 51.5133 24.4597 51.5997 24.4324C51.6887 24.405 51.7641 24.4238 51.8271 24.487C51.8925 24.5519 51.9185 24.6493 51.9061 24.7808C51.8629 25.2504 51.7381 25.6722 51.5306 26.0446Z" fill="white"/>
<path d="M57.3372 27.1264C57.4459 27.1861 57.4719 27.3757 57.4163 27.6934C57.3199 27.9393 57.2112 28.1699 57.0901 28.3833C56.9715 28.5985 56.8381 28.7984 56.6898 28.9845C56.6799 28.9845 56.675 28.9896 56.675 28.9982C56.5724 29.1211 56.465 29.2339 56.3538 29.3329C55.4012 30.016 54.8626 29.8231 54.7378 28.7522C54.3783 29.3124 54.1361 29.6608 54.0113 29.7974C53.7074 30.1305 53.3615 30.3166 52.9736 30.3576C52.6869 30.3901 52.4818 30.3081 52.3558 30.1117C52.231 29.917 52.2113 29.6198 52.2965 29.2236C52.425 28.6088 52.6363 28.0401 52.9291 27.5158C53.2775 26.9334 53.6778 26.4415 54.1299 26.0402C54.3696 25.8182 54.6352 25.6986 54.9256 25.685C55.2122 25.6542 55.4062 25.8455 55.5087 26.2588C55.5445 26.3783 55.531 26.4945 55.4692 26.6072C55.3901 26.7353 55.2863 26.778 55.1578 26.737C55.148 26.7421 55.1356 26.7438 55.1233 26.7438C55.1097 26.7404 55.0985 26.7302 55.0887 26.7165C54.9404 26.5116 54.807 26.4398 54.6884 26.4979C54.5722 26.5577 54.4512 26.6584 54.3227 26.7985C53.7297 27.4406 53.322 28.2587 53.102 29.2509C53.0897 29.297 53.0823 29.3449 53.0823 29.3944C53.0823 29.4405 53.0971 29.4764 53.1268 29.5037C53.2034 29.5276 53.2849 29.5037 53.3738 29.4354C53.4628 29.3671 53.5468 29.2783 53.6259 29.169C53.7074 29.0562 53.7766 28.9606 53.8334 28.882C53.8433 28.8684 53.8483 28.8615 53.8483 28.8615C54.1151 28.4431 54.3783 28.0213 54.639 27.5977C54.7477 27.3791 54.8972 27.2425 55.0887 27.1879C55.3617 27.1383 55.4939 27.2886 55.484 27.6387C55.4667 27.7719 55.4507 27.9017 55.4346 28.0281C55.3815 28.6019 55.4099 28.9281 55.5186 29.005C55.6298 29.0784 55.7855 29.0494 55.9831 28.9162C56.1808 28.7796 56.3698 28.5593 56.5514 28.2535C56.7318 27.9444 56.8825 27.6643 57.0011 27.4133C57.1198 27.1639 57.2309 27.0683 57.3372 27.1264Z" fill="white"/>
<path d="M87.5858 4.59566C87.5661 4.70496 87.5475 4.81426 87.5315 4.92356C87.3437 6.03537 87.1312 7.13009 86.894 8.20945C85.6412 13.5704 84.2427 18.7844 82.6984 23.8533C82.2005 25.4928 81.6816 27.1101 81.1417 28.7036C80.6043 30.2936 80.0607 31.8767 79.5109 33.4582C79.3849 33.8271 79.2552 34.1994 79.1205 34.5785C79.1131 34.6059 79.1069 34.6263 79.1007 34.64C79.0735 34.7493 79.0389 34.8415 78.9969 34.9201C78.9537 35.0021 78.8895 35.0516 78.8042 35.0704C78.7671 35.0738 78.7264 35.067 78.6807 35.0499C78.6374 35.0311 78.5991 35.0038 78.567 34.9679C78.5435 34.9355 78.5238 34.8808 78.5077 34.804C78.4941 34.7305 78.4929 34.669 78.5028 34.6195C78.5843 34.2592 78.6807 33.9176 78.7894 33.5948C79.0291 32.8382 79.2712 32.08 79.5158 31.32C79.973 29.9042 80.4251 28.4901 80.8699 27.0777C81.8447 23.9267 82.7552 20.7245 83.6027 17.4728C84.4527 14.2211 85.2731 10.942 86.0638 7.63561C86.3862 6.35644 86.6222 5.00554 86.7704 3.58461C86.8026 3.34381 86.8223 3.09275 86.8297 2.83316C86.8359 2.57015 86.826 2.30032 86.8001 2.02706C86.7111 1.44469 86.506 1.22438 86.1873 1.36442C85.9007 1.50105 85.6351 1.68208 85.3917 1.9041C84.8184 2.43353 84.2575 3.00053 83.7114 3.60511C80.7624 6.91149 78.1667 10.8105 75.9231 15.3004C75.8935 15.3738 75.8589 15.4439 75.8193 15.5122C75.041 17.0561 74.2738 18.6102 73.5165 20.1712C72.7579 21.7338 72.029 23.3324 71.3272 24.9668C71.179 25.3084 71.0221 25.6294 70.8578 25.93C70.686 26.263 70.4525 26.4253 70.156 26.415C70.0337 26.415 69.9262 26.3519 69.8348 26.2238C69.7458 26.0974 69.6989 25.9368 69.6964 25.7456C69.7063 25.2178 69.7409 24.6987 69.8002 24.188C69.988 22.5861 70.198 20.9978 70.4328 19.4266C70.4587 19.1857 70.4846 18.9552 70.5118 18.7366C70.5575 18.1542 70.6502 17.6077 70.7886 17.0971C70.7849 17.0885 70.7799 17.0868 70.7737 17.0902C70.7243 17.0629 70.6749 17.0424 70.6255 17.0287C70.5785 17.0151 70.5365 17.0458 70.497 17.1176C70.3549 17.4096 70.2203 17.7085 70.0918 18.0125C69.054 20.6323 68.0323 23.2709 67.0278 25.93C66.0222 28.5908 65.0486 31.2807 64.1072 34.0047C64.0281 34.2677 63.9343 34.4863 63.8255 34.6605C63.7193 34.8381 63.5611 34.9218 63.3511 34.9133C63.2585 34.8945 63.1794 34.8279 63.1139 34.7152C63.0509 34.6059 63.0299 34.4914 63.0497 34.3736C63.125 34.0081 63.2127 33.6597 63.3116 33.3284C63.5908 32.3805 63.8675 31.4361 64.1418 30.4934C64.6916 28.613 65.2352 26.7259 65.7726 24.8302C66.609 21.9251 67.3157 18.904 67.8927 15.7649C68.1126 14.5592 68.2682 13.3039 68.3572 12.0009C68.4091 11.3143 68.3918 10.6038 68.3028 9.86947C68.1348 8.7218 67.7716 7.94644 67.2156 7.53997C66.6584 7.13009 65.9678 7.01738 65.145 7.19841C64.3247 7.37602 63.4327 7.77907 62.4715 8.40756C61.5128 9.03604 60.5429 9.81311 59.5607 10.7371C58.5798 11.6576 57.6433 12.6464 56.7538 13.7019C55.8618 14.759 55.0773 15.8093 54.4015 16.8511C53.7269 17.8895 53.213 18.8442 52.8596 19.7135C52.4976 20.6613 52.2122 21.6843 52.0047 22.7808C51.896 23.3136 51.8589 23.8738 51.891 24.4613C51.8947 24.5808 51.8614 24.6765 51.7922 24.7482C51.7205 24.8165 51.6365 24.849 51.5401 24.8438C51.3894 24.8131 51.2819 24.6713 51.2189 24.4203C51.1633 24.089 51.1522 23.7781 51.1843 23.4912C51.2535 22.7671 51.3746 22.0686 51.5451 21.394C51.8589 20.2241 52.3889 18.9876 53.1364 17.6846C53.885 16.3832 54.7808 15.1023 55.8247 13.8453C56.8662 12.5849 57.9695 11.427 59.1357 10.375C60.302 9.32296 61.4584 8.45879 62.6049 7.77907C63.7539 7.09594 64.809 6.68947 65.7677 6.55626C66.7264 6.42475 67.5146 6.64848 68.1348 7.22573C68.7538 7.79957 69.1281 8.82086 69.2566 10.2862C69.3184 11.234 69.3011 12.1477 69.2022 13.0256C69.054 14.3286 68.8625 15.5976 68.629 16.8306C68.3943 18.0603 68.1397 19.2677 67.863 20.4513C67.7741 20.8253 67.7617 21.0029 67.8284 20.9841C67.8976 20.9619 67.9878 20.8065 68.1002 20.5196C68.5079 19.5188 68.9168 18.5231 69.3258 17.5343C69.605 16.875 69.8941 16.2261 70.1906 15.5873C70.2264 15.5019 70.2647 15.4165 70.3043 15.3346C70.4723 14.9486 70.6922 14.6702 70.9665 14.5011C71.1703 14.4055 71.3544 14.4431 71.52 14.6104C71.688 14.7795 71.7683 15.0613 71.7621 15.4575C71.7547 15.5036 71.7485 15.5463 71.7423 15.5873C71.7226 16.1116 71.6855 16.6223 71.6336 17.1176C71.4817 18.3387 71.3198 19.5546 71.1493 20.7655C71.0702 21.3906 70.9912 22.0225 70.9121 22.6646C70.8923 22.7517 70.8676 22.9174 70.838 23.1633C70.8046 23.3734 70.7713 23.5834 70.7391 23.7918C70.7095 24.0019 70.6848 24.159 70.665 24.2632C70.6971 24.2188 70.9862 23.6261 71.5298 22.487C72.2674 20.9295 73.1421 19.1089 74.154 17.0219C75.1646 14.9315 75.9627 13.333 76.5458 12.2263C77.633 10.2367 78.8017 8.39219 80.0545 6.69288C81.306 4.99529 82.6242 3.42066 84.008 1.97241C84.3502 1.63597 84.7048 1.32343 85.0704 1.03651C85.152 0.981862 85.2298 0.92038 85.3027 0.852066C85.6511 0.575395 86.0366 0.425105 86.4591 0.401196C87.2597 0.356791 87.6896 0.981862 87.7489 2.27982C87.781 3.08592 87.7267 3.85787 87.5858 4.59566ZM70.7342 17.0424C70.7601 17.0612 70.7762 17.0749 70.7836 17.0834C70.7836 17.0834 70.7849 17.0885 70.7886 17.0971C70.7947 17.0971 70.796 17.0936 70.7935 17.0834C70.7799 17.0749 70.7601 17.0612 70.7342 17.0424Z" fill="#D2C5AF"/>
<mask id="mask0_148_10" style="mask-type:luminance" maskUnits="userSpaceOnUse" x="85" y="23" width="3" height="4">
<path d="M85.6182 23.6139H88.0001V26.9066H85.6182V23.6139Z" fill="white"/>
</mask>
<g mask="url(#mask0_148_10)">
<mask id="mask1_148_10" style="mask-type:luminance" maskUnits="userSpaceOnUse" x="85" y="23" width="3" height="4">
<path d="M86.8091 23.6139C86.1506 23.6139 85.6182 24.35 85.6182 25.2603C85.6182 26.1688 86.1506 26.9066 86.8091 26.9066C87.4664 26.9066 88.0001 26.1688 88.0001 25.2603C88.0001 24.35 87.4664 23.6139 86.8091 23.6139Z" fill="white"/>
</mask>
<g mask="url(#mask1_148_10)">
<path d="M85.6182 23.6139H88.0001V26.9066H85.6182V23.6139Z" fill="white"/>
</g>
</g>
</svg>
