<svg width="20" height="20" viewBox="0 0 20 20" fill="none" xmlns="http://www.w3.org/2000/svg">
<path d="M9.16666 7.5V5H6.66666V3.33333H9.16666V0.833332H10.8333V3.33333H13.3333V5H10.8333V7.5H9.16666ZM5.83333 18.3333C5.375 18.3333 4.98263 18.1701 4.65625 17.8438C4.32986 17.5174 4.16666 17.125 4.16666 16.6667C4.16666 16.2083 4.32986 15.816 4.65625 15.4896C4.98263 15.1632 5.375 15 5.83333 15C6.29166 15 6.68402 15.1632 7.01041 15.4896C7.3368 15.816 7.5 16.2083 7.5 16.6667C7.5 17.125 7.3368 17.5174 7.01041 17.8438C6.68402 18.1701 6.29166 18.3333 5.83333 18.3333ZM14.1667 18.3333C13.7083 18.3333 13.316 18.1701 12.9896 17.8438C12.6632 17.5174 12.5 17.125 12.5 16.6667C12.5 16.2083 12.6632 15.816 12.9896 15.4896C13.316 15.1632 13.7083 15 14.1667 15C14.625 15 15.0174 15.1632 15.3437 15.4896C15.6701 15.816 15.8333 16.2083 15.8333 16.6667C15.8333 17.125 15.6701 17.5174 15.3437 17.8438C15.0174 18.1701 14.625 18.3333 14.1667 18.3333ZM0.833328 3.33333V1.66667H3.5625L7.10416 9.16667H12.9375L16.1875 3.33333H18.0833L14.4167 9.95833C14.2639 10.2361 14.059 10.4514 13.8021 10.6042C13.5451 10.7569 13.2639 10.8333 12.9583 10.8333H6.75L5.83333 12.5H15.8333V14.1667H5.83333C5.20833 14.1667 4.73263 13.8958 4.40625 13.3542C4.07986 12.8125 4.06944 12.2639 4.375 11.7083L5.5 9.66667L2.5 3.33333H0.833328Z" fill="black" fill-opacity="0.5"/>
</svg>
