<svg width="17" height="17" viewBox="0 0 17 17" fill="none" xmlns="http://www.w3.org/2000/svg">
<path d="M1.88889 15.1111H3.23472L12.4667 5.87917L11.1208 4.53333L1.88889 13.7653V15.1111ZM0 17V12.9861L12.4667 0.543056C12.6556 0.369907 12.8641 0.236111 13.0924 0.141667C13.3206 0.0472222 13.5606 0 13.8125 0C14.0644 0 14.3083 0.0472222 14.5444 0.141667C14.7806 0.236111 14.9852 0.377778 15.1583 0.566667L16.4569 1.88889C16.6458 2.06204 16.7836 2.26667 16.8701 2.50278C16.9567 2.73889 17 2.975 17 3.21111C17 3.46296 16.9567 3.70301 16.8701 3.93125C16.7836 4.15949 16.6458 4.36806 16.4569 4.55694L4.01389 17H0ZM11.7819 5.21806L11.1208 4.53333L12.4667 5.87917L11.7819 5.21806Z" fill="black" fill-opacity="0.5"/>
</svg>
