<svg width="120" height="120" viewBox="0 0 120 120" fill="none" xmlns="http://www.w3.org/2000/svg">
<path d="M24.3437 44.561C24.1262 45.1654 25.7218 48.4292 28.4779 53.0227C37.9307 68.713 36.6736 68.8581 38.3901 68.8581C40.2275 68.8581 39.9616 68.1811 34.3527 57.7854C28.3328 46.6402 25.1657 42.4335 24.3437 44.561Z" fill="#00B4E7"/>
<path d="M22.724 71.4204C22.4098 71.7347 22.579 72.0009 23.6911 73.2097C25.3592 74.9987 28.1395 75.7482 28.1395 74.4185C28.1153 73.3306 23.4251 70.7193 22.724 71.4204Z" fill="#00B4E7"/>
<path d="M18.783 79.1808C7.13002 75.3126 3.09262 74.3456 1.71457 75.1676C0.57829 75.8204 1.25524 76.3039 4.42231 77.1017C7.13005 77.7544 12.062 79.2533 16.8972 80.8732C20.8621 82.2028 21.7808 82.3479 22.8929 81.9369C24.416 81.3325 23.5215 80.7523 18.783 79.1808Z" fill="#00B4E7"/>
<path d="M43.443 38.7345C43.2254 39.3148 44.4584 44.8267 45.5463 48.2355C45.8123 49.0575 46.3442 51.2334 46.731 53.0466C47.4563 56.5763 47.5771 56.7699 48.9552 56.7699C50.2607 56.7699 50.2607 56.818 48.6892 50.919C45.9573 40.6442 44.2408 36.6554 43.443 38.7345Z" fill="#00B4E7"/>
<path d="M14.8664 64.0953C16.728 65.7876 17.3082 67.2624 19.0973 67.2624C21.9742 67.2624 22.0951 67.069 18.6621 63.6118C12.3038 57.2051 6.21136 52.7567 4.90585 53.5786C3.67288 54.4006 8.36305 57.3743 14.8664 64.0953Z" fill="#00B4E7"/>
<path d="M102.433 58.8251C104.27 57.2778 105.479 55.6822 105.479 54.8119C105.479 53.6031 103.98 53.2402 102.699 54.183C94.1646 60.3963 85.5337 69.4866 86.9602 70.7196C88.3624 71.9283 89.7888 71.0097 96.0262 64.8931C98.7823 62.2095 101.659 59.4779 102.433 58.8251Z" fill="#00B4E7"/>
<path d="M68.6829 39.4115C67.9334 41.8533 67.1598 47.6072 64.1378 59.7678C63.5334 62.1854 63.5334 62.2336 64.307 62.9588C64.9356 63.5391 66.1444 63.7569 66.7488 63.3701C67.2565 63.0558 71.294 46.1325 72.261 40.306C72.5995 38.0335 69.5291 36.607 68.6829 39.4115Z" fill="#00B4E7"/>
<path d="M113.336 68.8582C105.987 70.9132 92.5929 76.3042 91.8435 77.5372C91.3116 78.3833 93.4632 79.2053 94.9138 78.6976L100.305 76.7635C108.598 73.7899 118.8 69.4381 118.8 68.8821C118.776 67.7458 117.301 67.7461 113.336 68.8582Z" fill="#00B4E7"/>
<path d="M86.8388 44.029C86.4278 44.7301 85.1948 46.64 81.4717 51.7895C79.7794 54.1105 76.9749 58.9457 76.9749 59.5259C76.9749 60.6864 80.2629 56.6731 85.8717 48.6466C87.0806 46.906 88.2894 45.2861 88.5795 45.0444C89.885 43.8598 87.6124 42.7235 86.8388 44.029Z" fill="#00B4E7"/>
</svg>
